<?xml version="1.0" encoding="UTF-8" standalone="no"?>
<svg
   xmlns:dc="http://purl.org/dc/elements/1.1/"
   xmlns:cc="http://creativecommons.org/ns#"
   xmlns:rdf="http://www.w3.org/1999/02/22-rdf-syntax-ns#"
   xmlns:svg="http://www.w3.org/2000/svg"
   xmlns="http://www.w3.org/2000/svg"
   xmlns:sodipodi="http://sodipodi.sourceforge.net/DTD/sodipodi-0.dtd"
   xmlns:inkscape="http://www.inkscape.org/namespaces/inkscape"
   width="315mm"
   height="440mm"
   viewBox="0 0 315 440"
   version="1.1"
   id="svg8"
   inkscape:export-filename="C:\Users\lukas\kier.png"
   inkscape:export-xdpi="96"
   inkscape:export-ydpi="96"
   inkscape:version="1.0 (4035a4fb49, 2020-05-01)"
   sodipodi:docname="kier.svg">
  <defs
     id="defs2">
    <rect
       x="19.662164"
       y="17.302704"
       width="85.727035"
       height="89.659468"
       id="rect12" />
  </defs>
  <sodipodi:namedview
     id="base"
     pagecolor="#ffffff"
     bordercolor="#666666"
     borderopacity="1"
     inkscape:pageopacity="0.0"
     inkscape:pageshadow="2"
     inkscape:zoom="0.23787904"
     inkscape:cx="-208.61369"
     inkscape:cy="1045.9804"
     inkscape:document-units="mm"
     inkscape:current-layer="layer1"
     inkscape:document-rotation="0"
     showgrid="false"
     inkscape:window-width="1815"
     inkscape:window-height="1030"
     inkscape:window-x="64"
     inkscape:window-y="0"
     inkscape:window-maximized="0" />
  <metadata
     id="metadata5">
    <rdf:RDF>
      <cc:Work
         rdf:about="">
        <dc:format>image/svg+xml</dc:format>
        <dc:type
           rdf:resource="http://purl.org/dc/dcmitype/StillImage" />
        <dc:title />
      </cc:Work>
    </rdf:RDF>
  </metadata>
  <g
     inkscape:label="Warstwa 1"
     inkscape:groupmode="layer"
     id="layer1">
    <rect
       y="-0.00044072437"
       x="-0.0001980486"
       height="440.00211"
       width="315.11874"
       id="rect843"
       style="fill:#ffffff;fill-rule:evenodd;stroke-width:0.264583" />
    <path
       style="fill:#800000;stroke:#2b8900;stroke-width:0;stroke-linecap:round;stroke-linejoin:bevel"
       d="m 15.276935,49.337065 v -2.224519 h 2.176519 2.17652 l 4.885512,-13.628584 c 2.687032,-7.49572 4.868095,-13.673976 4.846804,-13.729459 -0.03266,-0.08511 -0.370443,-0.100875 -2.161138,-0.100875 h -2.122426 v -1.981214 -1.981213 h 9.141385 9.141389 v 1.981213 1.981214 h -2.012095 c -1.988535,0 -2.014141,0.0019 -2.18671,0.156411 l -0.174617,0.156411 4.815049,13.103815 c 2.648275,7.207096 4.868531,13.205057 4.933902,13.3288 0.06537,0.123746 0.215355,0.334899 0.333303,0.469236 l 0.214451,0.244245 h 1.869736 1.869739 v 2.224519 2.224521 h -7.021142 -7.02114 v -2.224521 -2.224519 h 1.529263 1.529265 l 0.401672,-0.311928 c 0.220922,-0.171561 0.459946,-0.410575 0.531167,-0.53114 l 0.129492,-0.219216 -1.172101,-3.570671 -1.172102,-3.570671 -6.492565,0.01773 -6.492568,0.01773 -1.209143,3.54533 c -0.691502,2.027552 -1.19457,3.607453 -1.175105,3.690445 0.04868,0.207542 0.293219,0.498552 0.614548,0.731319 l 0.277564,0.201067 h 1.553686 1.553684 v 2.224519 2.224521 H 22.332834 15.276935 Z M 39.401989,34.756033 c 0.0016,-0.02867 -1.069816,-3.437834 -2.380932,-7.575907 l -2.383848,-7.523768 -0.278064,-5e-5 -0.278064,-5.3e-5 -2.421395,7.35003 c -1.331767,4.042515 -2.426647,7.412362 -2.433069,7.488547 -0.02373,0.281754 0.327795,0.301815 5.393214,0.307742 2.628582,0.0031 4.780555,-0.01786 4.782158,-0.04654 z"
       id="path22" />
    <path
       id="path22-5"
       d="m 299.64937,387.75693 v 2.22452 h -2.17653 -2.17652 l -4.88551,13.62858 c -2.68704,7.49572 -4.8681,13.67397 -4.84681,13.72946 0.0327,0.0851 0.37045,0.10087 2.16114,0.10087 h 2.12243 v 1.98122 1.9812 h -9.14139 -9.14139 v -1.9812 -1.98122 h 2.0121 c 1.98853,0 2.01414,-0.002 2.18671,-0.15641 l 0.17461,-0.15641 -4.81504,-13.10381 c -2.64828,-7.20711 -4.86854,-13.20506 -4.93391,-13.3288 -0.0654,-0.12375 -0.21535,-0.3349 -0.3333,-0.46924 l -0.21445,-0.24424 h -1.86974 -1.86974 v -2.22452 -2.22452 h 7.02115 7.02114 v 2.22452 2.22452 h -1.52927 -1.52926 l -0.40167,0.31193 c -0.22093,0.17156 -0.45995,0.41057 -0.53117,0.53114 l -0.12949,0.21921 1.1721,3.57067 1.1721,3.57067 6.49257,-0.0177 6.49256,-0.0177 1.20915,-3.54533 c 0.6915,-2.02755 1.19457,-3.60745 1.1751,-3.69044 -0.0487,-0.20755 -0.29322,-0.49856 -0.61455,-0.73132 l -0.27756,-0.20107 h -1.55369 -1.55368 v -2.22452 -2.22452 h 7.0559 7.0559 z m -24.12507,14.58103 c -0.002,0.0287 1.06982,3.43783 2.38094,7.57591 l 2.38385,7.52376 0.27807,5e-5 0.27806,6e-5 2.4214,-7.35003 c 1.33175,-4.04252 2.42664,-7.41236 2.43307,-7.48855 0.0237,-0.28175 -0.32781,-0.30181 -5.39322,-0.30774 -2.62858,-0.003 -4.78055,0.0179 -4.78216,0.0465 z"
       style="fill:#800000;stroke:#2b8900;stroke-width:0;stroke-linecap:round;stroke-linejoin:bevel" />
    <path
       style="fill:#c50000;stroke:#000000;stroke-width:3.065;stroke-linecap:butt;stroke-linejoin:miter;stroke-opacity:1;stroke-miterlimit:4;stroke-dasharray:none;fill-opacity:1"
       d="m 157.29731,285.29467 c 0,0 -38.31223,-50.11459 -49.26906,-66.59656 -10.956828,-16.48197 -14.404832,-21.07673 -18.352292,-30.86521 -3.94746,-9.78848 -6.141907,-17.62457 -5.839364,-25.06061 0.302543,-7.43604 3.322694,-12.65024 5.769848,-16.61438 1.908404,-2.71285 6.715267,-7.72654 9.384698,-9.07188 5.58954,-3.29323 11.49947,-5.23777 18.14825,-5.38895 6.64878,-0.15118 12.82096,1.13374 17.89592,3.72056 5.07496,2.58682 9.95886,6.46088 13.2776,10.60124 3.31874,4.14036 5.62855,9.68168 7.12542,13.2776 1.28832,3.97826 1.85898,8.22516 1.85898,8.22516"
       id="path896"
       sodipodi:nodetypes="ccccccccccc" />
    <path
       style="fill:#c50000;stroke:#000000;stroke-width:3.065;stroke-linecap:butt;stroke-linejoin:miter;stroke-opacity:1;stroke-miterlimit:4;stroke-dasharray:none;fill-opacity:1"
       d="m 157.29731,167.52164 c 0,0 0.17339,5.74222 -0.49155,9.63446 -0.66494,3.89224 -2.14022,9.56327 -3.98159,13.46858 -1.84137,3.90531 -6.63598,9.83108 -6.63598,9.83108"
       id="path902"
       sodipodi:nodetypes="cccc" />
    <path
       style="fill:#c50000;stroke:#000000;stroke-width:3.065;stroke-linecap:butt;stroke-linejoin:miter;stroke-opacity:1;stroke-miterlimit:4;stroke-dasharray:none;fill-opacity:1"
       d="m 157.14148,269.38901 c 0,0 -52.86888,-67.59412 -60.771384,-86.08898 -3.173871,-7.34069 -3.285882,-10.0944 -2.932752,-15.01296 0.35313,-4.91856 1.88679,-9.65744 4.715361,-13.49026 3.109765,-4.21385 7.691825,-7.62188 12.643845,-9.32619 4.95357,-1.70485 10.6554,-1.80638 15.7103,-0.43077 4.37985,1.1919 8.68004,3.69969 11.54599,7.21964 3.46247,4.25259 5.40273,9.95256 5.71376,15.42764 0.2193,3.86039 -0.80554,7.93414 -2.77084,11.26405 -2.05041,3.47413 -5.40716,6.17669 -8.89094,8.21065 -2.22763,1.30057 -7.36666,2.36997 -7.36666,2.36997"
       id="path908"
       sodipodi:nodetypes="cccassssssc" />
    <path
       style="fill:#c50000;stroke:#000000;stroke-width:3.065;stroke-linecap:butt;stroke-linejoin:miter;stroke-opacity:1;stroke-miterlimit:4;stroke-dasharray:none;fill-opacity:1"
       d="m 156.98565,253.36468 c 0,0 -38.37906,-46.61786 -51.6364,-73.44921 -1.3085,-2.64825 -2.61724,-5.49888 -2.66176,-8.45242 -0.0544,-3.60968 1.08621,-7.32589 2.94026,-10.42351 1.23789,-2.06818 3.12111,-3.80902 5.2061,-5.01839 2.33238,-1.35286 5.06992,-2.17294 7.76459,-2.26791 2.61446,-0.0921 5.297,0.56269 7.66969,1.66461 1.80128,0.83654 3.46933,2.09228 4.72208,3.63339 1.28507,1.58088 2.27089,3.50314 2.65919,5.50309 0.46325,2.38598 0.30025,4.97532 -0.48522,7.27543 -0.66382,1.94388 -1.83477,3.82908 -3.43643,5.11516 -1.89328,1.52024 -4.36193,2.45266 -6.78113,2.66029 -2.1003,0.18026 -4.35361,-0.24592 -6.19469,-1.27265 -1.3363,-0.74523 -3.14886,-3.33982 -3.14886,-3.33982"
       id="path910"
       sodipodi:nodetypes="cssssssssssssc" />
    <path
       sodipodi:nodetypes="ccccccccccc"
       id="path896-3"
       d="m 157.29731,285.29467 c 0,0 38.31223,-50.11459 49.26906,-66.59656 10.95683,-16.48197 14.40483,-21.07673 18.35229,-30.86521 3.94746,-9.78848 6.14191,-17.62457 5.83937,-25.06061 -0.30255,-7.43604 -3.3227,-12.65024 -5.76985,-16.61438 -1.90841,-2.71285 -6.71527,-7.72654 -9.3847,-9.07188 -5.58954,-3.29323 -11.49947,-5.23777 -18.14825,-5.38895 -6.64878,-0.15118 -12.82096,1.13374 -17.89592,3.72056 -5.07496,2.58682 -9.95886,6.46088 -13.2776,10.60124 -3.31874,4.14036 -5.62855,9.68168 -7.12542,13.2776 -1.28832,3.97826 -1.85898,8.22516 -1.85898,8.22516"
       style="fill:#c50000;stroke:#000000;stroke-width:3.065;stroke-linecap:butt;stroke-linejoin:miter;stroke-opacity:1;stroke-miterlimit:4;stroke-dasharray:none;fill-opacity:1" />
    <path
       sodipodi:nodetypes="cccc"
       id="path902-5"
       d="m 157.29731,167.52164 c 0,0 -0.17339,5.74222 0.49155,9.63446 0.66494,3.89224 2.14022,9.56327 3.98159,13.46858 1.84137,3.90531 6.63598,9.83108 6.63598,9.83108"
       style="fill:#c50000;stroke:#000000;stroke-width:3.065;stroke-linecap:butt;stroke-linejoin:miter;stroke-opacity:1;stroke-miterlimit:4;stroke-dasharray:none;fill-opacity:1" />
    <path
       sodipodi:nodetypes="cccassssssc"
       id="path908-8"
       d="m 157.45314,269.38901 c 0,0 52.86888,-67.59412 60.77138,-86.08898 3.17388,-7.34069 3.28589,-10.0944 2.93276,-15.01296 -0.35313,-4.91856 -1.88679,-9.65744 -4.71536,-13.49026 -3.10977,-4.21385 -7.69183,-7.62188 -12.64385,-9.32619 -4.95357,-1.70485 -10.6554,-1.80638 -15.7103,-0.43077 -4.37985,1.1919 -8.68004,3.69969 -11.54599,7.21964 -3.46247,4.25259 -5.40273,9.95256 -5.71376,15.42764 -0.2193,3.86039 0.80554,7.93414 2.77084,11.26405 2.05041,3.47413 5.40716,6.17669 8.89094,8.21065 2.22763,1.30057 7.36666,2.36997 7.36666,2.36997"
       style="fill:#c50000;stroke:#000000;stroke-width:3.065;stroke-linecap:butt;stroke-linejoin:miter;stroke-opacity:1;stroke-miterlimit:4;stroke-dasharray:none;fill-opacity:1" />
    <path
       sodipodi:nodetypes="cssssssssssssc"
       id="path910-5"
       d="m 157.60897,253.36468 c 0,0 38.37906,-46.61786 51.6364,-73.44921 1.3085,-2.64825 2.61724,-5.49888 2.66176,-8.45242 0.0544,-3.60968 -1.08621,-7.32589 -2.94026,-10.42351 -1.23789,-2.06818 -3.12111,-3.80902 -5.2061,-5.01839 -2.33238,-1.35286 -5.06992,-2.17294 -7.76459,-2.26791 -2.61446,-0.0921 -5.297,0.56269 -7.66969,1.66461 -1.80128,0.83654 -3.46933,2.09228 -4.72208,3.63339 -1.28507,1.58088 -2.27089,3.50314 -2.65919,5.50309 -0.46325,2.38598 -0.30025,4.97532 0.48522,7.27543 0.66382,1.94388 1.83477,3.82908 3.43643,5.11516 1.89328,1.52024 4.36193,2.45266 6.78113,2.66029 2.1003,0.18026 4.35361,-0.24592 6.19469,-1.27265 1.3363,-0.74523 3.14886,-3.33982 3.14886,-3.33982"
       style="fill:#c50000;stroke:#000000;stroke-width:3.065;stroke-linecap:butt;stroke-linejoin:miter;stroke-opacity:1;stroke-miterlimit:4;stroke-dasharray:none;fill-opacity:1" />
    <path
       sodipodi:nodetypes="ccccccccccc"
       id="path896-4"
       d="m 156.53196,226.85017 c 0,0 -6.79676,-8.92489 -8.74054,-11.86015 -1.94379,-2.93527 -2.55548,-3.75355 -3.25577,-5.49676 -0.70029,-1.74323 -1.0896,-3.13876 -1.03593,-4.46304 0.0538,-1.32429 0.58946,-2.25287 1.02359,-2.95886 0.33857,-0.48312 1.19131,-1.37601 1.66488,-1.6156 0.99161,-0.58648 2.04005,-0.93279 3.21959,-0.95971 1.17951,-0.0269 2.27448,0.2019 3.1748,0.66259 0.90032,0.46068 1.76674,1.15062 2.3555,1.88797 0.58877,0.73735 0.99853,1.72421 1.26408,2.3646 0.22855,0.7085 0.3298,1.46482 0.3298,1.46482"
       style="fill:#ffffff;fill-opacity:1;stroke:#000000;stroke-width:1;stroke-linecap:butt;stroke-linejoin:miter;stroke-miterlimit:4;stroke-dasharray:none;stroke-opacity:1" />
    <path
       style="fill:#ffffff;fill-opacity:1;stroke:#000000;stroke-width:1;stroke-linecap:butt;stroke-linejoin:miter;stroke-miterlimit:4;stroke-dasharray:none;stroke-opacity:1"
       d="m 156.53196,226.85017 c 0,0 6.79674,-8.92489 8.74051,-11.86015 1.94379,-2.93527 2.55549,-3.75355 3.25578,-5.49676 0.7003,-1.74323 1.08959,-3.13876 1.03592,-4.46304 -0.0537,-1.32429 -0.58946,-2.25287 -1.02359,-2.95886 -0.33856,-0.48312 -1.19131,-1.37601 -1.66489,-1.6156 -0.9916,-0.58648 -2.04004,-0.93279 -3.21957,-0.95971 -1.17952,-0.0269 -2.27449,0.2019 -3.17481,0.66259 -0.90031,0.46068 -1.76674,1.15062 -2.3555,1.88797 -0.58874,0.73735 -0.99852,1.72421 -1.26408,2.3646 -0.22854,0.7085 -0.32977,1.46482 -0.32977,1.46482"
       id="path896-3-3"
       sodipodi:nodetypes="ccccccccccc" />
  </g>
</svg>
