<?xml version="1.0" encoding="UTF-8" standalone="no"?>
<svg
   xmlns:dc="http://purl.org/dc/elements/1.1/"
   xmlns:cc="http://creativecommons.org/ns#"
   xmlns:rdf="http://www.w3.org/1999/02/22-rdf-syntax-ns#"
   xmlns:svg="http://www.w3.org/2000/svg"
   xmlns="http://www.w3.org/2000/svg"
   xmlns:sodipodi="http://sodipodi.sourceforge.net/DTD/sodipodi-0.dtd"
   xmlns:inkscape="http://www.inkscape.org/namespaces/inkscape"
   sodipodi:docname="pik.svg"
   inkscape:version="1.0 (4035a4fb49, 2020-05-01)"
   inkscape:export-ydpi="96"
   inkscape:export-xdpi="96"
   inkscape:export-filename="C:\Users\lukas\pik.png"
   id="svg8"
   version="1.1"
   viewBox="0 0 315 440"
   height="440mm"
   width="315mm">
  <defs
     id="defs2">
    <rect
       id="rect12"
       height="89.659468"
       width="85.727035"
       y="17.302704"
       x="19.662164" />
  </defs>
  <sodipodi:namedview
     inkscape:window-maximized="0"
     inkscape:window-y="10"
     inkscape:window-x="70"
     inkscape:window-height="1030"
     inkscape:window-width="1815"
     showgrid="false"
     inkscape:document-rotation="0"
     inkscape:current-layer="layer1"
     inkscape:document-units="mm"
     inkscape:cy="766.57002"
     inkscape:cx="560.00921"
     inkscape:zoom="0.23787904"
     inkscape:pageshadow="2"
     inkscape:pageopacity="0.0"
     borderopacity="1"
     bordercolor="#666666"
     pagecolor="#ffffff"
     id="base" />
  <metadata
     id="metadata5">
    <rdf:RDF>
      <cc:Work
         rdf:about="">
        <dc:format>image/svg+xml</dc:format>
        <dc:type
           rdf:resource="http://purl.org/dc/dcmitype/StillImage" />
        <dc:title></dc:title>
      </cc:Work>
    </rdf:RDF>
  </metadata>
  <g
     id="layer1"
     inkscape:groupmode="layer"
     inkscape:label="Warstwa 1">
    <rect
       y="-0.00021352577"
       x="1.9650458e-06"
       height="440.00208"
       width="315.11874"
       id="rect960"
       style="fill:#000000;fill-opacity:1;fill-rule:evenodd;stroke-width:0.265;stroke-miterlimit:4;stroke-dasharray:none" />
    <path
       id="path22"
       d="m 15.276935,49.337065 v -2.224519 h 2.176519 2.17652 l 4.885512,-13.628584 c 2.687032,-7.49572 4.868095,-13.673976 4.846804,-13.729459 -0.03266,-0.08511 -0.370443,-0.100875 -2.161138,-0.100875 h -2.122426 v -1.981214 -1.981213 h 9.141385 9.141389 v 1.981213 1.981214 h -2.012095 c -1.988535,0 -2.014141,0.0019 -2.18671,0.156411 l -0.174617,0.156411 4.815049,13.103815 c 2.648275,7.207096 4.868531,13.205057 4.933902,13.3288 0.06537,0.123746 0.215355,0.334899 0.333303,0.469236 l 0.214451,0.244245 h 1.869736 1.869739 v 2.224519 2.224521 h -7.021142 -7.02114 v -2.224521 -2.224519 h 1.529263 1.529265 l 0.401672,-0.311928 c 0.220922,-0.171561 0.459946,-0.410575 0.531167,-0.53114 l 0.129492,-0.219216 -1.172101,-3.570671 -1.172102,-3.570671 -6.492565,0.01773 -6.492568,0.01773 -1.209143,3.54533 c -0.691502,2.027552 -1.19457,3.607453 -1.175105,3.690445 0.04868,0.207542 0.293219,0.498552 0.614548,0.731319 l 0.277564,0.201067 h 1.553686 1.553684 v 2.224519 2.224521 H 22.332834 15.276935 Z M 39.401989,34.756033 c 0.0016,-0.02867 -1.069816,-3.437834 -2.380932,-7.575907 l -2.383848,-7.523768 -0.278064,-5e-5 -0.278064,-5.3e-5 -2.421395,7.35003 c -1.331767,4.042515 -2.426647,7.412362 -2.433069,7.488547 -0.02373,0.281754 0.327795,0.301815 5.393214,0.307742 2.628582,0.0031 4.780555,-0.01786 4.782158,-0.04654 z"
       style="fill:#afc6e9;stroke:#2b8900;stroke-width:0;stroke-linecap:round;stroke-linejoin:bevel" />
    <path
       style="fill:#87aade;stroke:#2b8900;stroke-width:0;stroke-linecap:round;stroke-linejoin:bevel"
       d="m 299.64937,387.75693 v 2.22452 h -2.17653 -2.17652 l -4.88551,13.62858 c -2.68704,7.49572 -4.8681,13.67397 -4.84681,13.72946 0.0327,0.0851 0.37045,0.10087 2.16114,0.10087 h 2.12243 v 1.98122 1.9812 h -9.14139 -9.14139 v -1.9812 -1.98122 h 2.0121 c 1.98853,0 2.01414,-0.002 2.18671,-0.15641 l 0.17461,-0.15641 -4.81504,-13.10381 c -2.64828,-7.20711 -4.86854,-13.20506 -4.93391,-13.3288 -0.0654,-0.12375 -0.21535,-0.3349 -0.3333,-0.46924 l -0.21445,-0.24424 h -1.86974 -1.86974 v -2.22452 -2.22452 h 7.02115 7.02114 v 2.22452 2.22452 h -1.52927 -1.52926 l -0.40167,0.31193 c -0.22093,0.17156 -0.45995,0.41057 -0.53117,0.53114 l -0.12949,0.21921 1.1721,3.57067 1.1721,3.57067 6.49257,-0.0177 6.49256,-0.0177 1.20915,-3.54533 c 0.6915,-2.02755 1.19457,-3.60745 1.1751,-3.69044 -0.0487,-0.20755 -0.29322,-0.49856 -0.61455,-0.73132 l -0.27756,-0.20107 h -1.55369 -1.55368 v -2.22452 -2.22452 h 7.0559 7.0559 z m -24.12507,14.58103 c -0.002,0.0287 1.06982,3.43783 2.38094,7.57591 l 2.38385,7.52376 0.27807,5e-5 0.27806,6e-5 2.4214,-7.35003 c 1.33175,-4.04252 2.42664,-7.41236 2.43307,-7.48855 0.0237,-0.28175 -0.32781,-0.30181 -5.39322,-0.30774 -2.62858,-0.003 -4.78055,0.0179 -4.78216,0.0465 z"
       id="path22-5" />
    <path
       sodipodi:nodetypes="ccccccccccc"
       id="path896"
       d="m 157.29731,131.08334 c 0,0 -38.31223,50.11459 -49.26906,66.59656 -10.956828,16.48197 -14.404832,21.07673 -18.352292,30.86521 -3.94746,9.78848 -6.141907,17.62457 -5.839364,25.06061 0.302543,7.43604 3.322694,12.65024 5.769848,16.61438 1.908404,2.71285 6.715267,7.72654 9.384698,9.07188 5.58954,3.29323 11.49947,5.23777 18.14825,5.38895 6.64878,0.15118 12.82096,-1.13374 17.89592,-3.72056 5.07496,-2.58682 9.95886,-6.46088 13.2776,-10.60124 3.31874,-4.14036 5.62855,-9.68168 7.12542,-13.2776 1.28832,-3.97826 1.85898,-8.22516 1.85898,-8.22516"
       style="fill:#afc6e9;fill-opacity:1;stroke:#ffffff;stroke-width:3.065;stroke-linecap:butt;stroke-linejoin:miter;stroke-miterlimit:4;stroke-dasharray:none;stroke-opacity:1" />
    <path
       sodipodi:nodetypes="cccc"
       id="path902"
       d="m 157.29731,248.85637 c 0,0 0.17339,-5.74222 -0.49155,-9.63446 -0.66494,-3.89224 -2.14022,-9.56327 -3.98159,-13.46858 -1.84137,-3.90531 -6.63598,-9.83108 -6.63598,-9.83108"
       style="fill:#afc6e9;fill-opacity:1;stroke:#ffffff;stroke-width:3.065;stroke-linecap:butt;stroke-linejoin:miter;stroke-miterlimit:4;stroke-dasharray:none;stroke-opacity:1" />
    <path
       sodipodi:nodetypes="cccassssssc"
       id="path908"
       d="m 157.14148,146.989 c 0,0 -52.86888,67.59412 -60.771384,86.08898 -3.173871,7.34069 -3.285882,10.0944 -2.932752,15.01296 0.35313,4.91856 1.88679,9.65744 4.715361,13.49026 3.109765,4.21385 7.691825,7.62188 12.643845,9.32619 4.95357,1.70485 10.6554,1.80638 15.7103,0.43077 4.37985,-1.1919 8.68004,-3.69969 11.54599,-7.21964 3.46247,-4.25259 5.40273,-9.95256 5.71376,-15.42764 0.2193,-3.86039 -0.80554,-7.93414 -2.77084,-11.26405 -2.05041,-3.47413 -5.40716,-6.17669 -8.89094,-8.21065 -2.22763,-1.30057 -7.36666,-2.36997 -7.36666,-2.36997"
       style="fill:#afc6e9;fill-opacity:1;stroke:#ffffff;stroke-width:3.065;stroke-linecap:butt;stroke-linejoin:miter;stroke-miterlimit:4;stroke-dasharray:none;stroke-opacity:1" />
    <path
       sodipodi:nodetypes="cssssssssssssc"
       id="path910"
       d="m 156.98565,163.01333 c 0,0 -38.37906,46.61786 -51.6364,73.44921 -1.3085,2.64825 -2.61724,5.49888 -2.66176,8.45242 -0.0544,3.60968 1.08621,7.32589 2.94026,10.42351 1.23789,2.06818 3.12111,3.80902 5.2061,5.01839 2.33238,1.35286 5.06992,2.17294 7.76459,2.26791 2.61446,0.0921 5.297,-0.56269 7.66969,-1.66461 1.80128,-0.83654 3.46933,-2.09228 4.72208,-3.63339 1.28507,-1.58088 2.27089,-3.50314 2.65919,-5.50309 0.46325,-2.38598 0.30025,-4.97532 -0.48522,-7.27543 -0.66382,-1.94388 -1.83477,-3.82908 -3.43643,-5.11516 -1.89328,-1.52024 -4.36193,-2.45266 -6.78113,-2.66029 -2.1003,-0.18026 -4.35361,0.24592 -6.19469,1.27265 -1.3363,0.74523 -3.14886,3.33982 -3.14886,3.33982"
       style="fill:#afc6e9;fill-opacity:1;stroke:#ffffff;stroke-width:3.065;stroke-linecap:butt;stroke-linejoin:miter;stroke-miterlimit:4;stroke-dasharray:none;stroke-opacity:1" />
    <path
       style="fill:#afc6e9;fill-opacity:1;stroke:#ffffff;stroke-width:3.065;stroke-linecap:butt;stroke-linejoin:miter;stroke-miterlimit:4;stroke-dasharray:none;stroke-opacity:1"
       d="m 157.29731,131.08334 c 0,0 38.31223,50.11459 49.26906,66.59656 10.95683,16.48197 14.40483,21.07673 18.35229,30.86521 3.94746,9.78848 6.14191,17.62457 5.83937,25.06061 -0.30255,7.43604 -3.3227,12.65024 -5.76985,16.61438 -1.90841,2.71285 -6.71527,7.72654 -9.3847,9.07188 -5.58954,3.29323 -11.49947,5.23777 -18.14825,5.38895 -6.64878,0.15118 -12.82096,-1.13374 -17.89592,-3.72056 -5.07496,-2.58682 -9.95886,-6.46088 -13.2776,-10.60124 -3.31874,-4.14036 -5.62855,-9.68168 -7.12542,-13.2776 -1.28832,-3.97826 -1.85898,-8.22516 -1.85898,-8.22516"
       id="path896-3"
       sodipodi:nodetypes="ccccccccccc" />
    <path
       style="fill:#afc6e9;fill-opacity:1;stroke:#ffffff;stroke-width:3.065;stroke-linecap:butt;stroke-linejoin:miter;stroke-miterlimit:4;stroke-dasharray:none;stroke-opacity:1"
       d="m 157.29731,248.85637 c 0,0 -0.17339,-5.74222 0.49155,-9.63446 0.66494,-3.89224 2.14022,-9.56327 3.98159,-13.46858 1.84137,-3.90531 6.63598,-9.83108 6.63598,-9.83108"
       id="path902-5"
       sodipodi:nodetypes="cccc" />
    <path
       style="fill:#afc6e9;fill-opacity:1;stroke:#ffffff;stroke-width:3.065;stroke-linecap:butt;stroke-linejoin:miter;stroke-miterlimit:4;stroke-dasharray:none;stroke-opacity:1"
       d="m 157.45314,146.989 c 0,0 52.86888,67.59412 60.77138,86.08898 3.17388,7.34069 3.28589,10.0944 2.93276,15.01296 -0.35313,4.91856 -1.88679,9.65744 -4.71536,13.49026 -3.10977,4.21385 -7.69183,7.62188 -12.64385,9.32619 -4.95357,1.70485 -10.6554,1.80638 -15.7103,0.43077 -4.37985,-1.1919 -8.68004,-3.69969 -11.54599,-7.21964 -3.46247,-4.25259 -5.40273,-9.95256 -5.71376,-15.42764 -0.2193,-3.86039 0.80554,-7.93414 2.77084,-11.26405 2.05041,-3.47413 5.40716,-6.17669 8.89094,-8.21065 2.22763,-1.30057 7.36666,-2.36997 7.36666,-2.36997"
       id="path908-8"
       sodipodi:nodetypes="cccassssssc" />
    <path
       style="fill:#afc6e9;fill-opacity:1;stroke:#ffffff;stroke-width:3.065;stroke-linecap:butt;stroke-linejoin:miter;stroke-miterlimit:4;stroke-dasharray:none;stroke-opacity:1"
       d="m 157.60897,163.01333 c 0,0 38.37906,46.61786 51.6364,73.44921 1.3085,2.64825 2.61724,5.49888 2.66176,8.45242 0.0544,3.60968 -1.08621,7.32589 -2.94026,10.42351 -1.23789,2.06818 -3.12111,3.80902 -5.2061,5.01839 -2.33238,1.35286 -5.06992,2.17294 -7.76459,2.26791 -2.61446,0.0921 -5.297,-0.56269 -7.66969,-1.66461 -1.80128,-0.83654 -3.46933,-2.09228 -4.72208,-3.63339 -1.28507,-1.58088 -2.27089,-3.50314 -2.65919,-5.50309 -0.46325,-2.38598 -0.30025,-4.97532 0.48522,-7.27543 0.66382,-1.94388 1.83477,-3.82908 3.43643,-5.11516 1.89328,-1.52024 4.36193,-2.45266 6.78113,-2.66029 2.1003,-0.18026 4.35361,0.24592 6.19469,1.27265 1.3363,0.74523 3.14886,3.33982 3.14886,3.33982"
       id="path910-5"
       sodipodi:nodetypes="cssssssssssssc" />
    <path
       sodipodi:nodetypes="csssscc"
       id="path979"
       d="m 150.25539,267.66797 c 0,0 0.47127,7.99791 0.30537,11.99365 -0.11214,2.70097 -0.30193,5.421 -0.87778,8.06225 -0.59602,2.73376 -1.33211,5.49596 -2.64745,7.96549 -1.20793,2.26787 -2.82437,4.35783 -4.71362,6.09939 -1.63737,1.50937 -5.60054,3.64236 -5.60054,3.64236 l 41.48917,-0.18884"
       style="fill:none;stroke:#ffffff;stroke-width:2;stroke-linecap:butt;stroke-linejoin:miter;stroke-miterlimit:4;stroke-dasharray:none;stroke-opacity:1" />
    <path
       style="fill:none;stroke:#ffffff;stroke-width:2;stroke-linecap:butt;stroke-linejoin:miter;stroke-miterlimit:4;stroke-dasharray:none;stroke-opacity:1"
       d="m 164.67652,267.47913 c 0,0 -0.47127,7.99791 -0.30537,11.99365 0.11214,2.70097 0.30193,5.421 0.87778,8.06225 0.59602,2.73376 1.33211,5.49596 2.64745,7.96549 1.20793,2.26787 2.82437,4.35783 4.71362,6.09939 1.63737,1.50937 5.60054,3.64236 5.60054,3.64236 l -41.48917,-0.18884"
       id="path979-7"
       sodipodi:nodetypes="csssscc" />
  </g>
</svg>
